/* XPM */
static char *bluebrick[] = {
/* columns rows colors chars-per-pixel */
"64 64 4 1 ",
"  c #5A5959",
". c #2120DB",
"X c #1110ED",
"o c blue",
/* pixels */
"oooooooooooooooooooooooooooooooooooooooooooooooooooooooooooooooo",
"oooooooooooooooooooooooooooooooooooooooooooooooooooooooooooooooo",
"oooooooooooooooooooooooooooooooooooooooooooooooooooooooooooooooo",
"oooooooooooooooooooooooooooooooooooooooooooooooooooooooooooooooo",
"oooooooooooooooooooooooooooooooooooooooooooooooooooooooooooooooo",
"oooooooooooooooooooooooooooooooooooooooooooooooooooooooooooooooo",
"oooooooooooooo.                                 Xooooooooooooooo",
"oooooooooooooo.                                 Xooooooooooooooo",
"oooooooooooooo.                                 Xooooooooooooooo",
"oooooooooooooo.                                 Xooooooooooooooo",
"oooooooooooooo.                                 Xooooooooooooooo",
"oooooooooooooo.                                 Xooooooooooooooo",
"oooooooooooooo.                                 Xooooooooooooooo",
"oooooooooooooo.                                 Xooooooooooooooo",
"oooooooooooooo.                                 Xooooooooooooooo",
"oooooooooooooo.         Xooooooooooooooooooooooooooooooooooooooo",
"oooooooooooooo.         Xooooooooooooooooooooooooooooooooooooooo",
"oooooooooooooo.         Xooooooooooooooooooooooooooooooooooooooo",
"oooooooooooooo.         Xooooooooooooooooooooooooooooooooooooooo",
"oooooooooooooo.         Xooooooooooooooooooooooooooooooooooooooo",
"oooooooooooooo.         Xooooooooooooooooooooooooooooooooooooooo",
"oooooooooooooo.         Xooooooooooooooooooooooooooooooooooooooo",
"oooooooooooooo.         Xooooooooooooooooooooooooooooooooooooooo",
"oooooooooooooo.         Xooooooooooooooooooooooooooooooooooooooo",
"oooooooooooooo.         Xooooooooooooooooooooooooooooooooooooooo",
"oooooooooooooo.         Xooooooooooooooooooooooooooooooooooooooo",
"oooooooooooooo.         Xooooooooooooooooooooooooooooooooooooooo",
"oooooooooooooo.                               Xooooooooooooooooo",
"oooooooooooooo.                               Xooooooooooooooooo",
"oooooooooooooo.                               Xooooooooooooooooo",
"oooooooooooooo.                               Xooooooooooooooooo",
"oooooooooooooo.                               Xooooooooooooooooo",
"oooooooooooooo.                               Xooooooooooooooooo",
"oooooooooooooo.                               Xooooooooooooooooo",
"oooooooooooooo.                               Xooooooooooooooooo",
"oooooooooooooo.                               Xooooooooooooooooo",
"oooooooooooooo.         Xooooooooooooooooooooooooooooooooooooooo",
"oooooooooooooo.         Xooooooooooooooooooooooooooooooooooooooo",
"oooooooooooooo.         Xooooooooooooooooooooooooooooooooooooooo",
"oooooooooooooo.         Xooooooooooooooooooooooooooooooooooooooo",
"oooooooooooooo.         Xooooooooooooooooooooooooooooooooooooooo",
"oooooooooooooo.         Xooooooooooooooooooooooooooooooooooooooo",
"oooooooooooooo.         Xooooooooooooooooooooooooooooooooooooooo",
"oooooooooooooo.         Xooooooooooooooooooooooooooooooooooooooo",
"oooooooooooooo.         Xooooooooooooooooooooooooooooooooooooooo",
"oooooooooooooo.         Xooooooooooooooooooooooooooooooooooooooo",
"oooooooooooooo.         Xooooooooooooooooooooooooooooooooooooooo",
"oooooooooooooo.         Xooooooooooooooooooooooooooooooooooooooo",
"oooooooooooooo.         Xooooooooooooooooooooooooooooooooooooooo",
"oooooooooooooo.                                  Xoooooooooooooo",
"oooooooooooooo.                                  Xoooooooooooooo",
"oooooooooooooo.                                  Xoooooooooooooo",
"oooooooooooooo.                                  Xoooooooooooooo",
"oooooooooooooo.                                  Xoooooooooooooo",
"oooooooooooooo.                                  Xoooooooooooooo",
"oooooooooooooo.                                  Xoooooooooooooo",
"oooooooooooooo.                                  Xoooooooooooooo",
"oooooooooooooo.                                  Xoooooooooooooo",
"oooooooooooooooooooooooooooooooooooooooooooooooooooooooooooooooo",
"oooooooooooooooooooooooooooooooooooooooooooooooooooooooooooooooo",
"oooooooooooooooooooooooooooooooooooooooooooooooooooooooooooooooo",
"oooooooooooooooooooooooooooooooooooooooooooooooooooooooooooooooo",
"oooooooooooooooooooooooooooooooooooooooooooooooooooooooooooooooo",
"oooooooooooooooooooooooooooooooooooooooooooooooooooooooooooooooo"
};
