/* XPM */
static char *f110beb8cc974778d504e48af10efa4eNK1rv3rFAdPf1wED[] = {
/* columns rows colors chars-per-pixel */
"64 64 4 1 ",
"  c #0B1520",
". c #2E3A3B",
"X c #3A444A",
"o c #555E6D",
/* pixels */
"  oooooooooooooooooooooooooooo  ................................",
"  oooooooooooooooooooooooooooo  ................................",
"  XXXXXXXXXXXXXXXXXXXXXXXXoooo  XXXXXXXXXXXXXXXXXXXXXXXXXXXX....",
"  XXXXXXXXXXXXXXXXXXXXXXXXXXoo  XXXXXXXXXXXXXXXXXXXXXXXXXXXXX...",
"  XXXXXXXXXXXXXXXXXXXXXXXXXXoo  XXXXXXXXXXXXXXXXXXXXXXXXXXXXXX..",
"  XXXXXXXXXXXXXXXXXXXXXXXXXXoo  XXXXXXXXXXXXXXXXXXXXXXXXXXXXXX..",
"  XXXXXXXXXXXXXXXXXXXXXXXXXXoo  XXXXXXXXXXXXXXXXXXXXXXXXXXXXXX..",
"  XXXXXXXXXXXXXXXXXXXXXXXXXXoo  XXXXXXXXXXXXXXXXXXXXXXXXXXXXXX..",
"  XXXXXXXXXXXXXXXXXXXXXXXXXXoo  XXXXXXXXXXXXXXXXXXXXXXXXXXXXXX..",
"  XXXXXXXXXXXXXXXXXXXXXXXXXXoo  XXXXXXXXXXXXXXXXXXXXXXXXXXXXXX..",
"  XXXXXXXXXXXXXXXXXXXXXXXXXXoo  XXXXXXXXXXXXXXXXXXXXXXXXXXXXXX..",
"  XXXXXXXXXXXXXXXXXXXXXXXXXXoo  XXXXXXXXXXXXXXXXXXXXXXXXXXXXXX..",
"  ..........................oo  XXXXXXXXXXXXXXXXXXXXXXXXXXXXXX..",
"   .........................oo  XXXXXXXXXXXXXXXXXXXXXXXXXXXXXX..",
"                                                                ",
"                                                                ",
".............    oooooooooooooooooooooooooo    .................",
"..............  oooooooooooooooooooooooooooo  ..................",
"XXXXXXXXXXX...  XXXXXXXXXXXXXXXXXXXXXXXXXooo  XXXXXXXXXXXXXXXXXX",
"XXXXXXXXXXXX..  XXXXXXXXXXXXXXXXXXXXXXXXXXoo  XXXXXXXXXXXXXXXXXX",
"XXXXXXXXXXXX..  XXXXXXXXXXXXXXXXXXXXXXXXXXoo  XXXXXXXXXXXXXXXXXX",
"XXXXXXXXXXXX..  XXXXXXXXXXXXXXXXXXXXXXXXXXoo  XXXXXXXXXXXXXXXXXX",
"XXXXXXXXXXXX..  XXXXXXXXXXXXXXXXXXXXXXXXXXoo  XXXXXXXXXXXXXXXXXX",
"XXXXXXXXXXXX..  XXXXXXXXXXXXXXXXXXXXXXXXXXoo  XXXXXXXXXXXXXXXXXX",
"XXXXXXXXXXXX..  XXXXXXXXXXXXXXXXXXXXXXXXXXoo  XXXXXXXXXXXXXXXXXX",
"XXXXXXXXXXXX..  XXXXXXXXXXXXXXXXXXXXXXXXXXoo  XXXXXXXXXXXXXXXXXX",
"XXXXXXXXXXXX..  XXXXXXXXXXXXXXXXXXXXXXXXXXoo  XXXXXXXXXXXXXXXXXX",
"XXXXXXXXXXXX..  XXXXXXXXXXXXXXXXXXXXXXXXXXoo  XXXXXXXXXXXXXXXXXX",
"XXXXXXXXXXXX..  ..........................oo  XXXXXXXXXXXXXXXXXX",
"XXXXXXXXXXXX..   .........................o    XXXXXXXXXXXXXXXXX",
"                                                                ",
"                                                                ",
"   ..........................    ooooooooooooooooooooooooooooooo",
"   ...........................  oooooooooooooooooooooooooooooooo",
"  ...XXXXXXXXXXXXXXXXXXXXXX...  XXXXXXXXXXXXXXXXXXXXXXXXXXXXXooo",
"  ...XXXXXXXXXXXXXXXXXXXXXXX..  XXXXXXXXXXXXXXXXXXXXXXXXXXXXXooo",
"  ..XXXXXXXXXXXXXXXXXXXXXXXX..  XXXXXXXXXXXXXXXXXXXXXXXXXXXXXXoo",
"  ..XXXXXXXXXXXXXXXXXXXXXXXX..  XXXXXXXXXXXXXXXXXXXXXXXXXXXXXXoo",
"  ..XXXXXXXXXXXXXXXXXXXXXXXX..  XXXXXXXXXXXXXXXXXXXXXXXXXXXXXXoo",
"  ..XXXXXXXXXXXXXXXXXXXXXXXX..  XXXXXXXXXXXXXXXXXXXXXXXXXXXXXXoo",
"  ..XXXXXXXXXXXXXXXXXXXXXXXX..  XXXXXXXXXXXXXXXXXXXXXXXXXXXXXXoo",
"  ..XXXXXXXXXXXXXXXXXXXXXXXX..  XXXXXXXXXXXXXXXXXXXXXXXXXXXXXXoo",
"  ...XXXXXXXXXXXXXXXXXXXXXXX..  XXXXXXXXXXXXXXXXXXXXXXXXXXXXXXoo",
"  ....XXXXXXXXXXXXXXXXXXXXX...  XXXXXXXXXXXXXXXXXXXXXXXXXXXXXXoo",
"   ...........................  ..............................oo",
"    .........................    .............................oo",
"                                                                ",
"                                                                ",
"oooooooooooooo   oooooooooooooooooooooooooo    ooooooooooooooooo",
"oooooooooooooo  oooooooooooooooooooooooooooo  oooooooooooooooooo",
"XXXXXXXXXXXX..  XXXXXXXXXXXXXXXXXXXXXXXXXooo  XXXXXXXXXXXXXXXXXX",
"XXXXXXXXXXXX..  XXXXXXXXXXXXXXXXXXXXXXXXXXoo  XXXXXXXXXXXXXXXXXX",
"XXXXXXXXXXXX..  XXXXXXXXXXXXXXXXXXXXXXXXXXoo  XXXXXXXXXXXXXXXXXX",
"XXXXXXXXXXXX..  XXXXXXXXXXXXXXXXXXXXXXXXXXoo  XXXXXXXXXXXXXXXXXX",
"XXXXXXXXXXXX..  XXXXXXXXXXXXXXXXXXXXXXXXXXoo  XXXXXXXXXXXXXXXXXX",
"XXXXXXXXXXXX..  XXXXXXXXXXXXXXXXXXXXXXXXXXoo  XXXXXXXXXXXXXXXXXX",
"XXXXXXXXXXXX..  XXXXXXXXXXXXXXXXXXXXXXXXXXoo  XXXXXXXXXXXXXXXXXX",
"XXXXXXXXXXXX..  XXXXXXXXXXXXXXXXXXXXXXXXXXoo  XXXXXXXXXXXXXXXXXX",
"XXXXXXXXXXXX..  XXXXXXXXXXXXXXXXXXXXXXXXXXoo  XXXXXXXXXXXXXXXXXX",
"XXXXXXXXXXXX..  XXXXXXXXXXXXXXXXXXXXXXXXXXoo  XXXXXXXXXXXXXXXXXX",
"XXXXXXXXXXXX..   XXXXXXXXXXXXXXXXXXXXXXXXXo   XXXXXXXXXXXXXXXXXX",
"XXXXXXXXXXXX.     XXXXXXXXXXXXXXXXXXXXXXXX      XXXXXXXXXXXXXXXX",
"                                                                ",
"                                                                "
};
