/* XPM */
static char * Brick_Wall_Cracked_SO_xpm[] = {
"24 24 238 2",
"  	c #29303B",
". 	c #4F5966",
"+ 	c #4F5866",
"@ 	c #2A313C",
"# 	c #555E6D",
"$ 	c #2C333F",
"% 	c #313C3F",
"& 	c #313D3F",
"* 	c #384247",
"= 	c #48505D",
"- 	c #1F292F",
"; 	c #303B3D",
"> 	c #2E3A3B",
", 	c #1E272E",
"' 	c #3A444A",
") 	c #394349",
"! 	c #172029",
"~ 	c #4A545F",
"{ 	c #2C343F",
"] 	c #3B454B",
"^ 	c #4B5461",
"/ 	c #2B333B",
"( 	c #2D363D",
"_ 	c #3A414D",
": 	c #444E57",
"< 	c #49525E",
"[ 	c #242C35",
"} 	c #283138",
"| 	c #3A424E",
"1 	c #444E58",
"2 	c #4B5361",
"3 	c #262F36",
"4 	c #384248",
"5 	c #161F28",
"6 	c #2F3840",
"7 	c #4C5462",
"8 	c #454F59",
"9 	c #434D57",
"0 	c #343F43",
"a 	c #47515B",
"b 	c #3F4951",
"c 	c #47505D",
"d 	c #353D49",
"e 	c #333D43",
"f 	c #0C1620",
"g 	c #202832",
"h 	c #252D37",
"i 	c #192329",
"j 	c #182228",
"k 	c #1A232A",
"l 	c #242D36",
"m 	c #19212B",
"n 	c #1E272F",
"o 	c #1F2830",
"p 	c #2B333D",
"q 	c #2D343F",
"r 	c #121B25",
"s 	c #1A242A",
"t 	c #2D393A",
"u 	c #151E26",
"v 	c #48515D",
"w 	c #4D5663",
"x 	c #1F2630",
"y 	c #4D5563",
"z 	c #525B69",
"A 	c #505968",
"B 	c #19212A",
"C 	c #3F4853",
"D 	c #535C6A",
"E 	c #333A46",
"F 	c #2A3439",
"G 	c #303940",
"H 	c #363D49",
"I 	c #525B6A",
"J 	c #343F42",
"K 	c #182229",
"L 	c #222B32",
"M 	c #293138",
"N 	c #373F4B",
"O 	c #464F5A",
"P 	c #48515C",
"Q 	c #313944",
"R 	c #434C56",
"S 	c #3D4552",
"T 	c #333C42",
"U 	c #374046",
"V 	c #2E3540",
"W 	c #2A323C",
"X 	c #4A525F",
"Y 	c #3C464C",
"Z 	c #83868C",
"` 	c #D2D3D5",
" .	c #E1E1E2",
"..	c #D7D8D8",
"+.	c #B1B3B4",
"@.	c #48515E",
"#.	c #3F484E",
"$.	c #A7A9AA",
"%.	c #D9D9DA",
"&.	c #DFDFE0",
"*.	c #C3C4C4",
"=.	c #63676B",
"-.	c #343C47",
";.	c #4A535E",
">.	c #3D464E",
",.	c #595B5D",
"'.	c #F5F5F5",
").	c #D1D2D2",
"!.	c #B0B2B3",
"~.	c #BCBDBE",
"{.	c #C8C9CA",
"].	c #4B535F",
"^.	c #C4C5C6",
"/.	c #F4F4F4",
"(.	c #C1C2C4",
"_.	c #B4B6B8",
":.	c #EEEEEE",
"<.	c #5F6366",
"[.	c #3E4751",
"}.	c #353F43",
"|.	c #8E8F90",
"1.	c #EFEFEF",
"2.	c #3C4649",
"3.	c #3A454B",
"4.	c #232D33",
"5.	c #777B7C",
"6.	c #FAFAFA",
"7.	c #7E8183",
"8.	c #3E4850",
"9.	c #3B434F",
"0.	c #40474C",
"a.	c #E0E0E1",
"b.	c #C3C4C5",
"c.	c #1C252C",
"d.	c #646567",
"e.	c #F6F6F6",
"f.	c #BFC0C0",
"g.	c #88898A",
"h.	c #43474C",
"i.	c #0F1823",
"j.	c #161F27",
"k.	c #AEAEAF",
"l.	c #E0E1E1",
"m.	c #252B31",
"n.	c #202830",
"o.	c #121A25",
"p.	c #161E28",
"q.	c #9E9FA0",
"r.	c #EAEAEA",
"s.	c #0F1822",
"t.	c #2D383A",
"u.	c #86898A",
"v.	c #D4D5D5",
"w.	c #EDEDED",
"x.	c #F7F7F7",
"y.	c #BBBCBC",
"z.	c #23282F",
"A.	c #BDBEC1",
"B.	c #DADBDD",
"C.	c #4F5865",
"D.	c #96999F",
"E.	c #323D40",
"F.	c #4B5357",
"G.	c #808284",
"H.	c #F9F9F9",
"I.	c #7C7D7E",
"J.	c #A9ABAD",
"K.	c #E8E8E9",
"L.	c #434A54",
"M.	c #ADAFB0",
"N.	c #E5E5E5",
"O.	c #3B454C",
"P.	c #3D464C",
"Q.	c #242D34",
"R.	c #4E535B",
"S.	c #F5F5F6",
"T.	c #8C8D8E",
"U.	c #63686C",
"V.	c #F8F8F8",
"W.	c #A7A9AB",
"X.	c #404854",
"Y.	c #242C34",
"Z.	c #63686B",
"`.	c #EEEEEF",
" +	c #B3B4B7",
".+	c #333E42",
"++	c #919495",
"@+	c #EBEBEC",
"#+	c #D7D8D9",
"$+	c #D3D4D6",
"%+	c #EAEBEB",
"&+	c #4A4D50",
"*+	c #A4A6A8",
"=+	c #F4F4F5",
"-+	c #59606A",
";+	c #3D474E",
">+	c #121C24",
",+	c #2C3839",
"'+	c #4A5154",
")+	c #939697",
"!+	c #B5B7B8",
"~+	c #BCBEBF",
"{+	c #A3A5A5",
"]+	c #515758",
"^+	c #6F7375",
"/+	c #B9BBBC",
"(+	c #414A4D",
"_+	c #4E5865",
":+	c #0D1621",
"<+	c #131C24",
"[+	c #192229",
"}+	c #0D1722",
"|+	c #151F27",
"1+	c #162027",
"2+	c #454E5A",
"3+	c #272E39",
"4+	c #4E5764",
"5+	c #28303A",
"6+	c #3E4651",
"7+	c #2D373D",
"8+	c #464E5C",
"9+	c #424B54",
"0+	c #3B4350",
"a+	c #353F45",
"b+	c #424C55",
"c+	c #182128",
"d+	c #414A53",
"e+	c #2F3742",
"f+	c #303A40",
"g+	c #343E44",
"h+	c #3D4551",
"i+	c #1A232B",
"j+	c #0B1520",
"k+	c #111A24",
"l+	c #0A1420",
"m+	c #1E262E",
"n+	c #202732",
"o+	c #222A33",
"  . + + + + + . @ # # $ % & & & & & & * = - ; > ",
", ' ' ' ' ' ' ) ! . ~ { ' ' ' ' ' ' ] ^ / ) ) ; ",
", ' ' ' ' ' ' ( _ : < { ' ' ' ' ' ' < [ ' ' ' & ",
", ) } { { { { | 1 ' < { ' ' ' ' ' ' 2 3 4 ' ' & ",
"5 6 7 8 8 8 8 9 0 0 a { ' ' ' ' ' ' b c d e ' & ",
"f g h i i j i k j i l m , , n o n n , p q r n s ",
"% % % % t u v w x y z A B , C D E F G H I ) % % ",
"' ' ' ' J K L M N O P Q 4 ' ' R S T U V W X Y ' ",
"' ' ' ' 0 i Z `  ...+.@.} #.$.%.&.*.=.-.;.>.] ' ",
"' ' ' ' 0 ,.'.).!.~.{.].} ^./.(._.&.:.<.[.' ' ' ",
"' ' ' ' }.|.1.2.0 3.^ 4.5.6.7.8.9.0.a.b.' ' ' ' ",
", n n n c.d.e.f.g.h.i.j.k.l.m.n.o.p.q.r.o o o o ",
"s.t.% % % % u.v.w.x.y.z.A.B.y C.C.C.D./.C.C.. # ",
"K E.' ' ' ' ' ' F.G.H.I.J.K.L.G ' ' M.N.' ' O.I ",
"j 0 ' ' ' P.P.) Q.R.S.T.U.V.W.X.Y.Z.`. +' ' ' + ",
"j .+' ' ' ++@+#+$+`.%+&+' *+V.a.#+=+%.-+;+' ' + ",
">+,+.+0 0 '+)+!+~+{+]+j .+0 ^+!./+|.(+0 0 0 0 _+",
":+<+k k k [+i k k k [+}+|+k k k :+1+k k k k k   ",
"2+3+D C.4+5+v C.C.C.C.C.C.C.C.D E 6+C.C.C.C.C.C.",
"T S R ' 0 i ' ' ' ' ' ' ' ' ' R S T ' ' ' ' ' ' ",
"7+8+9+' 0 i ' ' ' ' ' ' ' ' ' 9+S T ' ' ' ' ' ' ",
"0+w ;+' 0 i ' ' ' ' ' ' ' ' ' 9+S T ' ' ' ' a+W ",
"b+' ' ' 0 c+e ' ' ' ' ' ' ' ' d+e+f+' ' ' g+h+^ ",
", , , , i+j+k+, , , , , , , , i+j+l+m+, m+l+n+o+"};
