/* XPM */
static char * Brick_Wall_Cracked_WE_xpm[] = {
"24 24 246 2",
"  	c #29303B",
". 	c #4F5966",
"+ 	c #4F5866",
"@ 	c #2A313C",
"# 	c #555E6D",
"$ 	c #2C333F",
"% 	c #313C3F",
"& 	c #313D3F",
"* 	c #384247",
"= 	c #48505D",
"- 	c #1F292F",
"; 	c #303B3D",
"> 	c #2E3A3B",
", 	c #1E272E",
"' 	c #3A444A",
") 	c #394349",
"! 	c #172029",
"~ 	c #4A545F",
"{ 	c #2C343F",
"] 	c #3B454B",
"^ 	c #4B5461",
"/ 	c #2B333B",
"( 	c #2D363D",
"_ 	c #3A414D",
": 	c #444E57",
"< 	c #49525E",
"[ 	c #242C35",
"} 	c #283138",
"| 	c #3A424E",
"1 	c #444E58",
"2 	c #4B5361",
"3 	c #262F36",
"4 	c #384248",
"5 	c #161F28",
"6 	c #2F3840",
"7 	c #4C5462",
"8 	c #454F59",
"9 	c #434D57",
"0 	c #343F43",
"a 	c #47515B",
"b 	c #3F4951",
"c 	c #47505D",
"d 	c #353D49",
"e 	c #333D43",
"f 	c #0C1620",
"g 	c #202832",
"h 	c #252D37",
"i 	c #192329",
"j 	c #182228",
"k 	c #1A232A",
"l 	c #242D36",
"m 	c #19212B",
"n 	c #1E272F",
"o 	c #1F2830",
"p 	c #2B333D",
"q 	c #2D343F",
"r 	c #121B25",
"s 	c #1A242A",
"t 	c #2D393A",
"u 	c #151E26",
"v 	c #48515D",
"w 	c #4D5663",
"x 	c #1F2630",
"y 	c #4D5563",
"z 	c #525B69",
"A 	c #505968",
"B 	c #19212A",
"C 	c #3F4853",
"D 	c #535C6A",
"E 	c #333A46",
"F 	c #2A3439",
"G 	c #303940",
"H 	c #363D49",
"I 	c #525B6A",
"J 	c #343F42",
"K 	c #182229",
"L 	c #222B32",
"M 	c #293138",
"N 	c #373F4B",
"O 	c #464F5A",
"P 	c #48515C",
"Q 	c #313944",
"R 	c #434C56",
"S 	c #3D4552",
"T 	c #333C42",
"U 	c #374046",
"V 	c #2E3540",
"W 	c #2A323C",
"X 	c #4A525F",
"Y 	c #3C464C",
"Z 	c #B3B5B6",
"` 	c #C6C7C8",
" .	c #626770",
"..	c #EFF0F0",
"+.	c #A7AAAC",
"@.	c #979A9F",
"#.	c #DBDBDC",
"$.	c #444C51",
"%.	c #ABADAE",
"&.	c #F0F0F0",
"*.	c #E2E2E3",
"=.	c #4A535E",
"-.	c #3D464E",
";.	c #949799",
">.	c #F1F1F1",
",.	c #374145",
"'.	c #A1A3A5",
").	c #EFEFEF",
"!.	c #D5D6D6",
"~.	c #CACBCD",
"{.	c #CCCDCD",
"].	c #B5B7B8",
"^.	c #E7E7E8",
"/.	c #919397",
"(.	c #8E9192",
"_.	c #909395",
":.	c #86888A",
"<.	c #3E4751",
"[.	c #63686C",
"}.	c #F4F4F4",
"|.	c #7B7E80",
"1.	c #CCCDCE",
"2.	c #B2B4B5",
"3.	c #ECEDED",
"4.	c #4A5257",
"5.	c #4D5662",
"6.	c #E9E9E9",
"7.	c #A3A5A6",
"8.	c #B4B6B7",
"9.	c #DEDEDF",
"0.	c #3B434F",
"a.	c #323B41",
"b.	c #E2E3E3",
"c.	c #A9AAAB",
"d.	c #2C3035",
"e.	c #E8E8E9",
"f.	c #616365",
"g.	c #DFE0E0",
"h.	c #7E7F81",
"i.	c #636567",
"j.	c #F6F6F6",
"k.	c #646668",
"l.	c #B2B3B3",
"m.	c #C6C6C7",
"n.	c #C6C7C7",
"o.	c #A7A8A9",
"p.	c #0F1822",
"q.	c #2D383A",
"r.	c #BCBDBD",
"s.	c #D3D4D4",
"t.	c #6F7375",
"u.	c #E7E7E7",
"v.	c #B1B2B3",
"w.	c #9B9D9D",
"x.	c #EAEAEA",
"y.	c #545D6C",
"z.	c #B8BABD",
"A.	c #F0F0F1",
"B.	c #C2C3C6",
"C.	c #C2C4C6",
"D.	c #A8ABAF",
"E.	c #4F5865",
"F.	c #323D40",
"G.	c #86898B",
"H.	c #F2F2F2",
"I.	c #A9ABAD",
"J.	c #C8C9CA",
"K.	c #888B8D",
"L.	c #D8D9D9",
"M.	c #CACBCC",
"N.	c #C2C2C3",
"O.	c #B5B6B8",
"P.	c #DDDDDE",
"Q.	c #353F45",
"R.	c #323C42",
"S.	c #3B454C",
"T.	c #52585D",
"U.	c #9B9D9F",
"V.	c #4E5255",
"W.	c #F0F1F1",
"X.	c #8D8E8F",
"Y.	c #B6B8BA",
"Z.	c #242C34",
"`.	c #374147",
" +	c #39414C",
".+	c #444D59",
"++	c #333E42",
"@+	c #3D464C",
"#+	c #DADADB",
"$+	c #F9FAFA",
"%+	c #6B7073",
"&+	c #3A444C",
"*+	c #4A535F",
"=+	c #E0E1E2",
"-+	c #F8F8F8",
";+	c #55585A",
">+	c #B6B7B8",
",+	c #FFFFFF",
"'+	c #FEFEFE",
")+	c #FAFBFB",
"!+	c #424B52",
"~+	c #121C24",
"{+	c #2C3839",
"]+	c #4E5558",
"^+	c #585E61",
"/+	c #3D474F",
"(+	c #3A444B",
"_+	c #505759",
":+	c #565C5D",
"<+	c #1E272C",
"[+	c #4A5154",
"}+	c #5D6365",
"|+	c #5F6368",
"1+	c #55595B",
"2+	c #5C6164",
"3+	c #4E5865",
"4+	c #0D1621",
"5+	c #131C24",
"6+	c #192229",
"7+	c #0D1722",
"8+	c #151F27",
"9+	c #162027",
"0+	c #454E5A",
"a+	c #272E39",
"b+	c #4E5764",
"c+	c #28303A",
"d+	c #3E4651",
"e+	c #2D373D",
"f+	c #464E5C",
"g+	c #424B54",
"h+	c #3B4350",
"i+	c #3D474E",
"j+	c #424C55",
"k+	c #182128",
"l+	c #414A53",
"m+	c #2F3742",
"n+	c #303A40",
"o+	c #343E44",
"p+	c #3D4551",
"q+	c #1A232B",
"r+	c #0B1520",
"s+	c #111A24",
"t+	c #0A1420",
"u+	c #1E262E",
"v+	c #202732",
"w+	c #222A33",
"  . + + + + + . @ # # $ % & & & & & & * = - ; > ",
", ' ' ' ' ' ' ) ! . ~ { ' ' ' ' ' ' ] ^ / ) ) ; ",
", ' ' ' ' ' ' ( _ : < { ' ' ' ' ' ' < [ ' ' ' & ",
", ) } { { { { | 1 ' < { ' ' ' ' ' ' 2 3 4 ' ' & ",
"5 6 7 8 8 8 8 9 0 0 a { ' ' ' ' ' ' b c d e ' & ",
"f g h i i j i k j i l m , , n o n n , p q r n s ",
"% % % % t u v w x y z A B , C D E F G H I ) % % ",
"' ' ' ' J K L M N O P Q 4 ' ' R S T U V W X Y ' ",
"' ' Z ` 0 i  ...+.' Y @.#.$.%.&.&.&.&.*.=.-.] ' ",
"' ' ;.>.,.i '.).!.' Y ~.{.' ].^./.(._.:.<.' ' ' ",
"' ' [.}.|.i 1.2.3.4.5.6.7.0 8.9.0.a.' ' ' ' ' ' ",
", n n b.c.d.e.f.g.h.i.j.k.k l.>.m.m.n.o.o o o o ",
"p.q.% r.s.t.u.% r.v.w.x.= y.z.A.B.B.C.D.E.E.. # ",
"K F.' G.H.I.J.' K.L.M.N.' b O.P.' ' Q.R.' ' S.I ",
"j 0 ' T.}.u.U.) V.3.W.X.' ' Y.9.Z.`. +.+' ' ' + ",
"j ++' @+#+$+%+&+*+=+-+;+' ' >+,+'+'+'+)+!+' ' + ",
"~+{+++0 ]+^+,./+(+_+:+<+++0 [+}+|+1+}+2+0 0 0 3+",
"4+5+k k k 6+i k k k 6+7+8+k k k 4+9+k k k k k   ",
"0+a+D E.b+c+v E.E.E.E.E.E.E.E.D E d+E.E.E.E.E.E.",
"T S R ' 0 i ' ' ' ' ' ' ' ' ' R S T ' ' ' ' ' ' ",
"e+f+g+' 0 i ' ' ' ' ' ' ' ' ' g+S T ' ' ' ' ' ' ",
"h+w i+' 0 i ' ' ' ' ' ' ' ' ' g+S T ' ' ' ' Q.W ",
"j+' ' ' 0 k+e ' ' ' ' ' ' ' ' l+m+n+' ' ' o+p+^ ",
", , , , q+r+s+, , , , , , , , q+r+t+u+, u+t+v+w+"};
