/* XPM */
static char * Brick_Wall_Cracked_NO_xpm[] = {
"24 24 243 2",
"  	c #29303B",
". 	c #4F5966",
"+ 	c #4F5866",
"@ 	c #2A313C",
"# 	c #555E6D",
"$ 	c #2C333F",
"% 	c #313C3F",
"& 	c #313D3F",
"* 	c #384247",
"= 	c #48505D",
"- 	c #1F292F",
"; 	c #303B3D",
"> 	c #2E3A3B",
", 	c #1E272E",
"' 	c #3A444A",
") 	c #394349",
"! 	c #172029",
"~ 	c #4A545F",
"{ 	c #2C343F",
"] 	c #3B454B",
"^ 	c #4B5461",
"/ 	c #2B333B",
"( 	c #2D363D",
"_ 	c #3A414D",
": 	c #444E57",
"< 	c #49525E",
"[ 	c #242C35",
"} 	c #283138",
"| 	c #3A424E",
"1 	c #444E58",
"2 	c #4B5361",
"3 	c #262F36",
"4 	c #384248",
"5 	c #161F28",
"6 	c #2F3840",
"7 	c #4C5462",
"8 	c #454F59",
"9 	c #434D57",
"0 	c #343F43",
"a 	c #47515B",
"b 	c #3F4951",
"c 	c #47505D",
"d 	c #353D49",
"e 	c #333D43",
"f 	c #0C1620",
"g 	c #202832",
"h 	c #252D37",
"i 	c #192329",
"j 	c #182228",
"k 	c #1A232A",
"l 	c #242D36",
"m 	c #19212B",
"n 	c #1E272F",
"o 	c #1F2830",
"p 	c #2B333D",
"q 	c #2D343F",
"r 	c #121B25",
"s 	c #1A242A",
"t 	c #2D393A",
"u 	c #151E26",
"v 	c #48515D",
"w 	c #4D5663",
"x 	c #1F2630",
"y 	c #4D5563",
"z 	c #525B69",
"A 	c #505968",
"B 	c #19212A",
"C 	c #3F4853",
"D 	c #535C6A",
"E 	c #333A46",
"F 	c #2A3439",
"G 	c #303940",
"H 	c #363D49",
"I 	c #525B6A",
"J 	c #343F42",
"K 	c #182229",
"L 	c #222B32",
"M 	c #293138",
"N 	c #373F4B",
"O 	c #464F5A",
"P 	c #48515C",
"Q 	c #313944",
"R 	c #434C56",
"S 	c #3D4552",
"T 	c #333C42",
"U 	c #374046",
"V 	c #2E3540",
"W 	c #2A323C",
"X 	c #4A525F",
"Y 	c #3C464C",
"Z 	c #1F272D",
"` 	c #DCDCDE",
" .	c #CBCCCE",
"..	c #464F59",
"+.	c #454E53",
"@.	c #D2D3D5",
"#.	c #75787A",
"$.	c #8E9194",
"%.	c #D2D2D4",
"&.	c #E0E0E0",
"*.	c #D0D1D2",
"=.	c #8A8C8F",
"-.	c #4A535E",
";.	c #3D464E",
">.	c #242B30",
",.	c #F6F7F7",
"'.	c #FAFAFA",
").	c #8C8F91",
"!.	c #4A5256",
"~.	c #ECECED",
"{.	c #848688",
"].	c #A0A2A3",
"^.	c #F9F9F9",
"/.	c #CECED0",
"(.	c #B0B1B2",
"_.	c #CDCECF",
":.	c #F8F8F8",
"<.	c #9D9FA2",
"[.	c #353F43",
"}.	c #F5F5F5",
"|.	c #C8C9C9",
"1.	c #DDDDDD",
"2.	c #3F494F",
"3.	c #565D69",
"4.	c #EAEBEB",
"5.	c #878A8B",
"6.	c #4C5356",
"7.	c #EEEEEF",
"8.	c #B4B5B7",
"9.	c #3B434F",
"0.	c #323B41",
"a.	c #B1B3B4",
"b.	c #F0F0F1",
"c.	c #1C252C",
"d.	c #1E242B",
"e.	c #7C7D7E",
"f.	c #EAEAEA",
"g.	c #8C8D8F",
"h.	c #2B2F35",
"i.	c #EAEAEB",
"j.	c #828485",
"k.	c #6D6F71",
"l.	c #FCFCFC",
"m.	c #46494E",
"n.	c #121A25",
"o.	c #161E28",
"p.	c #5A5D60",
"q.	c #797B7D",
"r.	c #0F1822",
"s.	c #2D383A",
"t.	c #374144",
"u.	c #797C7D",
"v.	c #A5A7A7",
"w.	c #E2E2E3",
"x.	c #454B4D",
"y.	c #8D9095",
"z.	c #8F939A",
"A.	c #F8F8F9",
"B.	c #4F5865",
"C.	c #606772",
"D.	c #F4F4F5",
"E.	c #92969B",
"F.	c #323D40",
"G.	c #3F484E",
"H.	c #7C7F82",
"I.	c #434B51",
"J.	c #E9E9E9",
"K.	c #9B9D9E",
"L.	c #898C8E",
"M.	c #6F7378",
"N.	c #63676A",
"O.	c #353F45",
"P.	c #6E7275",
"Q.	c #F7F7F7",
"R.	c #777B7E",
"S.	c #3B454C",
"T.	c #7B7F81",
"U.	c #242D34",
"V.	c #9A9C9F",
"W.	c #ECECEC",
"X.	c #464E53",
"Y.	c #E5E5E6",
"Z.	c #CDCED0",
"`.	c #33393F",
" +	c #374147",
".+	c #414851",
"++	c #CECFD0",
"@+	c #E5E6E6",
"#+	c #333E42",
"$+	c #48515E",
"%+	c #535B66",
"&+	c #FEFEFE",
"*+	c #808386",
"=+	c #F1F1F1",
"-+	c #EBECEC",
";+	c #D1D1D2",
">+	c #EBEBEB",
",+	c #7D8083",
"'+	c #121C24",
")+	c #2C3839",
"!+	c #374145",
"~+	c #B7B8B9",
"{+	c #63696D",
"]+	c #3A444B",
"^+	c #828585",
"/+	c #BDBDBE",
"(+	c #676C6E",
"_+	c #585E61",
":+	c #A5A7A9",
"<+	c #B9BABA",
"[+	c #A5A7A8",
"}+	c #575D5F",
"|+	c #4E5865",
"1+	c #0D1621",
"2+	c #131C24",
"3+	c #192229",
"4+	c #0D1722",
"5+	c #151F27",
"6+	c #162027",
"7+	c #454E5A",
"8+	c #272E39",
"9+	c #4E5764",
"0+	c #28303A",
"a+	c #3E4651",
"b+	c #2D373D",
"c+	c #464E5C",
"d+	c #424B54",
"e+	c #3B4350",
"f+	c #3D474E",
"g+	c #424C55",
"h+	c #182128",
"i+	c #414A53",
"j+	c #2F3742",
"k+	c #303A40",
"l+	c #343E44",
"m+	c #3D4551",
"n+	c #1A232B",
"o+	c #0B1520",
"p+	c #111A24",
"q+	c #0A1420",
"r+	c #1E262E",
"s+	c #202732",
"t+	c #222A33",
"  . + + + + + . @ # # $ % & & & & & & * = - ; > ",
", ' ' ' ' ' ' ) ! . ~ { ' ' ' ' ' ' ] ^ / ) ) ; ",
", ' ' ' ' ' ' ( _ : < { ' ' ' ' ' ' < [ ' ' ' & ",
", ) } { { { { | 1 ' < { ' ' ' ' ' ' 2 3 4 ' ' & ",
"5 6 7 8 8 8 8 9 0 0 a { ' ' ' ' ' ' b c d e ' & ",
"f g h i i j i k j i l m , , n o n n , p q r n s ",
"% % % % t u v w x y z A B , C D E F G H I ) % % ",
"' ' ' ' J K L M N O P Q 4 ' ' R S T U V W X Y ' ",
"' ' ' ' 0 Z `  ...' +.@.#.' ' $.%.&.*.=.-.;.] ' ",
"' ' ' ' 0 >.,.'.).' !.~.{.' ].^./.(._.:.<.' ' ' ",
"' ' ' ' [.>.}.|.1.2.3.4.5.6.7.8.9.0.' a.b.!.' ' ",
", n n n c.d.}.e.f.g.h.i.j.k.l.m.n.o.o p.}.q.o o ",
"r.s.% % % t.}.u.v.w.x.f.y.z.A.B.B.B.B.C.D.E.. # ",
"K F.' ' ' G.}.H.I.J.K.i.L.M.l.N.' ' O.P.Q.R.S.I ",
"j 0 ' ' ' G.}.T.U.V.i.W.L.X.Y.Z.`. +.+++@+G.' + ",
"j #+' ' ' G.}.H.$+%+@+&+L.' *+=+-+;+>+=+,+' ' + ",
"'+)+#+0 0 !+~+{+]+0 ^+/+(+0 0 _+:+<+[+}+0 0 0 |+",
"1+2+k k k 3+i k k k 3+4+5+k k k 1+6+k k k k k   ",
"7+8+D B.9+0+v B.B.B.B.B.B.B.B.D E a+B.B.B.B.B.B.",
"T S R ' 0 i ' ' ' ' ' ' ' ' ' R S T ' ' ' ' ' ' ",
"b+c+d+' 0 i ' ' ' ' ' ' ' ' ' d+S T ' ' ' ' ' ' ",
"e+w f+' 0 i ' ' ' ' ' ' ' ' ' d+S T ' ' ' ' O.W ",
"g+' ' ' 0 h+e ' ' ' ' ' ' ' ' i+j+k+' ' ' l+m+^ ",
", , , , n+o+p+, , , , , , , , n+o+q+r+, r+q+s+t+"};
