/* XPM */
static char * Brick_Wall_Cracked_EA_xpm[] = {
"24 24 236 2",
"  	c #29303B",
". 	c #4F5966",
"+ 	c #4F5866",
"@ 	c #2A313C",
"# 	c #555E6D",
"$ 	c #2C333F",
"% 	c #313C3F",
"& 	c #313D3F",
"* 	c #384247",
"= 	c #48505D",
"- 	c #1F292F",
"; 	c #303B3D",
"> 	c #2E3A3B",
", 	c #1E272E",
"' 	c #3A444A",
") 	c #394349",
"! 	c #172029",
"~ 	c #4A545F",
"{ 	c #2C343F",
"] 	c #3B454B",
"^ 	c #4B5461",
"/ 	c #2B333B",
"( 	c #2D363D",
"_ 	c #3A414D",
": 	c #444E57",
"< 	c #49525E",
"[ 	c #242C35",
"} 	c #283138",
"| 	c #3A424E",
"1 	c #444E58",
"2 	c #4B5361",
"3 	c #262F36",
"4 	c #384248",
"5 	c #161F28",
"6 	c #2F3840",
"7 	c #4C5462",
"8 	c #454F59",
"9 	c #434D57",
"0 	c #343F43",
"a 	c #47515B",
"b 	c #3F4951",
"c 	c #47505D",
"d 	c #353D49",
"e 	c #333D43",
"f 	c #0C1620",
"g 	c #202832",
"h 	c #252D37",
"i 	c #192329",
"j 	c #182228",
"k 	c #1A232A",
"l 	c #242D36",
"m 	c #19212B",
"n 	c #1E272F",
"o 	c #1F2830",
"p 	c #2B333D",
"q 	c #2D343F",
"r 	c #121B25",
"s 	c #1A242A",
"t 	c #2D393A",
"u 	c #151E26",
"v 	c #48515D",
"w 	c #4D5663",
"x 	c #1F2630",
"y 	c #4D5563",
"z 	c #525B69",
"A 	c #505968",
"B 	c #19212A",
"C 	c #3F4853",
"D 	c #535C6A",
"E 	c #333A46",
"F 	c #2A3439",
"G 	c #303940",
"H 	c #363D49",
"I 	c #525B6A",
"J 	c #343F42",
"K 	c #182229",
"L 	c #222B32",
"M 	c #293138",
"N 	c #373F4B",
"O 	c #464F5A",
"P 	c #48515C",
"Q 	c #313944",
"R 	c #434C56",
"S 	c #3D4552",
"T 	c #333C42",
"U 	c #374046",
"V 	c #2E3540",
"W 	c #2A323C",
"X 	c #4A525F",
"Y 	c #3C464C",
"Z 	c #737577",
"` 	c #ACAEB0",
" .	c #AFB1B4",
"..	c #B1B3B6",
"+.	c #ADAFB0",
"@.	c #A0A2A4",
"#.	c #474F5D",
"$.	c #676C70",
"%.	c #AFB1B3",
"&.	c #5A5E67",
"*.	c #363F46",
"=.	c #343C47",
"-.	c #4A535E",
";.	c #3D464E",
">.	c #AEAFB0",
",.	c #F7F8F8",
"'.	c #E2E3E3",
").	c #D0D1D1",
"!.	c #454E5C",
"~.	c #39434A",
"{.	c #C0C1C2",
"].	c #FCFCFC",
"^.	c #B1B1B3",
"/.	c #323C42",
"(.	c #2E373E",
"_.	c #3E4751",
":.	c #DEDEDF",
"<.	c #303C40",
"[.	c #323E41",
"}.	c #384349",
"|.	c #4A5360",
"1.	c #232D33",
"2.	c #333E42",
"3.	c #485053",
"4.	c #EBECEC",
"5.	c #B9BBBB",
"6.	c #E8E8E9",
"7.	c #384046",
"8.	c #1B252C",
"9.	c #ADAEAF",
"0.	c #DDDEDE",
"a.	c #232A2F",
"b.	c #252C31",
"c.	c #2A3137",
"d.	c #1B2129",
"e.	c #161F27",
"f.	c #88898A",
"g.	c #E9E9E9",
"h.	c #3D4146",
"i.	c #EEEEEE",
"j.	c #818284",
"k.	c #0F1822",
"l.	c #2D383A",
"m.	c #B0B2B2",
"n.	c #FFFFFF",
"o.	c #06141F",
"p.	c #464F5B",
"q.	c #D6D7D9",
"r.	c #B9BABD",
"s.	c #4E5765",
"t.	c #C5C7C9",
"u.	c #CACCCE",
"v.	c #4F5865",
"w.	c #323D40",
"x.	c #B1B3B4",
"y.	c #E2E2E2",
"z.	c #666B6E",
"A.	c #5E6164",
"B.	c #565C60",
"C.	c #63686B",
"D.	c #F5F5F5",
"E.	c #8C8E91",
"F.	c #626669",
"G.	c #909395",
"H.	c #4B5156",
"I.	c #3B454C",
"J.	c #DEDFDF",
"K.	c #374148",
"L.	c #242D34",
"M.	c #373E4A",
"N.	c #454F58",
"O.	c #ABADAE",
"P.	c #FEFEFE",
"Q.	c #A5A7AA",
"R.	c #444C59",
"S.	c #E7E7E8",
"T.	c #8E9193",
"U.	c #94969B",
"V.	c #96999E",
"W.	c #8A8D8E",
"X.	c #1C252B",
"Y.	c #E3E3E3",
"Z.	c #B3B5B6",
"`.	c #40494E",
" +	c #474F58",
".+	c #565F6C",
"++	c #BCBDBE",
"@+	c #DCDDDE",
"#+	c #4C5560",
"$+	c #3D474E",
"%+	c #121C24",
"&+	c #2C3839",
"*+	c #A9ABAC",
"=+	c #F4F5F5",
"-+	c #EBEBEB",
";+	c #67696B",
">+	c #5F6567",
",+	c #374049",
"'+	c #616466",
")+	c #606567",
"!+	c #4E5865",
"~+	c #0D1621",
"{+	c #131C24",
"]+	c #101D24",
"^+	c #00131D",
"/+	c #00141E",
"(+	c #01141E",
"_+	c #06121E",
":+	c #000F1B",
"<+	c #162027",
"[+	c #01151E",
"}+	c #172228",
"|+	c #454E5A",
"1+	c #272E39",
"2+	c #4E5764",
"3+	c #28303A",
"4+	c #3E4651",
"5+	c #2D373D",
"6+	c #464E5C",
"7+	c #424B54",
"8+	c #3B4350",
"9+	c #353F45",
"0+	c #424C55",
"a+	c #182128",
"b+	c #414A53",
"c+	c #2F3742",
"d+	c #303A40",
"e+	c #343E44",
"f+	c #3D4551",
"g+	c #1A232B",
"h+	c #0B1520",
"i+	c #111A24",
"j+	c #0A1420",
"k+	c #1E262E",
"l+	c #202732",
"m+	c #222A33",
"  . + + + + + . @ # # $ % & & & & & & * = - ; > ",
", ' ' ' ' ' ' ) ! . ~ { ' ' ' ' ' ' ] ^ / ) ) ; ",
", ' ' ' ' ' ' ( _ : < { ' ' ' ' ' ' < [ ' ' ' & ",
", ) } { { { { | 1 ' < { ' ' ' ' ' ' 2 3 4 ' ' & ",
"5 6 7 8 8 8 8 9 0 0 a { ' ' ' ' ' ' b c d e ' & ",
"f g h i i j i k j i l m , , n o n n , p q r n s ",
"% % % % t u v w x y z A B , C D E F G H I ) % % ",
"' ' ' ' J K L M N O P Q 4 ' ' R S T U V W X Y ' ",
"' ' ' ' 0 Z `  ...+.@.#.} ' $.%.&.T *.=.-.;.] ' ",
"' ' ' ' 0 >.,.'.'.'.).!.} ~.{.].^./.' (._.' ' ' ",
"' ' ' ' 0 >.:.<.[.}.|.1.2.3.4.5.6.7.' ' ' ' ' ' ",
", n n n 8.9.0.a.b.c.d.e.i f.g.h.i.j.o o o o o o ",
"k.l.% % % m.n.n.n.n.).o.p.q.r.s.t.u.v.v.v.v.. # ",
"K w.' ' ' x.y.z.z.A.B.K C.D.E.F.G.D.H./.' ' I.I ",
"j 0 ' ' ' x.J.K.L.M.N.i O.n.n.n.n.P.Q.R.' ' ' + ",
"j 2.' ' ' x.S.T.U.V.W.X.Y.Z.`. +.+++@+#+$+' ' + ",
"%+&+2.0 0 *+=+D.D.D.-+;+i.>+0 0 ,+'+i.)+0 0 0 !+",
"~+{+k k k ]+^+/+/+/+(+_+:+i k k ~+<+[+}+k k k   ",
"|+1+D v.2+3+v v.v.v.v.v.v.v.v.D E 4+v.v.v.v.v.v.",
"T S R ' 0 i ' ' ' ' ' ' ' ' ' R S T ' ' ' ' ' ' ",
"5+6+7+' 0 i ' ' ' ' ' ' ' ' ' 7+S T ' ' ' ' ' ' ",
"8+w $+' 0 i ' ' ' ' ' ' ' ' ' 7+S T ' ' ' ' 9+W ",
"0+' ' ' 0 a+e ' ' ' ' ' ' ' ' b+c+d+' ' ' e+f+^ ",
", , , , g+h+i+, , , , , , , , g+h+j+k+, k+j+l+m+"};
