/* XPM */
static char *grenbrick[] = {
/* columns rows colors chars-per-pixel */
"64 64 16 1 ",
"  c #5A5959",
". c #566855",
"X c #517750",
"o c #3EA83E",
"O c #34BD33",
"+ c #39B338",
"@ c #07F607",
"# c green",
"$ c #11ED10",
"% c #19E419",
"& c #2EC72D",
"* c #28D127",
"= c #21DB20",
"- c #4D844C",
"; c #489047",
": c #439C43",
/* pixels */
"################################################################",
"################################################################",
"################################################################",
"################################################################",
"################################################################",
"################################################################",
"########################&Oo       oO&###########################",
"#####################*:               o=########################",
"###################%-                   ;%######################",
"##################O                       &#####################",
"#################O                         O####################",
"################O                           O###################",
"###############%                             *##################",
"###############-                             X@#################",
"##############&          XO%####%O-           O#################",
"##############;         &##########*.         .@################",
"#############@         %############$X         &################",
"#############&        O##############=         :################",
"#############+        %###############:        .################",
"#############;        ################*         @###############",
"#############-        ################@         %###############",
"#############X        %################X        =###############",
"#############X        O#########################################",
"#############;         =########################################",
"#############:          O#######################################",
"#############O            +&####################################",
"#############*               -O%################################",
"#############@.                  +O#############################",
"##############o                     XO=#########################",
"##############$                         +%######################",
"###############O                          ;=####################",
"################:                           :###################",
"#################:                           X$#################",
"##################*.                          X@################",
"####################OX                         :################",
"######################%O.                       =###############",
"#########################$O;                    :###############",
"#############################*OX                 @##############",
"#################################O+              *##############",
"####################################*;           O##############",
"######################################=.         o##############",
"#######################################*         o##############",
"############O        +##################;        o##############",
"############O        o##################O        o##############",
"############&        -##################&        +##############",
"############*         @#################O        O##############",
"############@         &#################:        *##############",
"#############-        X@###############$         @##############",
"#############O         ;###############-        ;###############",
"#############$          -%###########%-         &###############",
"##############o           :O$#####=O;          X@###############",
"##############$.                               &################",
"###############&                              :#################",
"################+                            -@#################",
"#################+                          -@##################",
"##################*                        o####################",
"###################@o                    ;=#####################",
"#####################$O.               o=#######################",
"########################@OO:       oO&##########################",
"################################################################",
"################################################################",
"################################################################",
"################################################################",
"################################################################"
};
