/* XPM */
static char *redbrick[] = {
/* columns rows colors chars-per-pixel */
"64 64 13 1 ",
"  c #5A5959",
". c #695555",
"X c #775050",
"o c #A83E3E",
"O c #BE3333",
"+ c #B33838",
"@ c #F60707",
"# c red",
"$ c #ED1010",
"% c #C82D2D",
"& c #DB2020",
"* c #914747",
"= c #9D4343",
/* pixels */
"################################################################",
"################################################################",
"################################################################",
"################################################################",
"################################################################",
"################################################################",
"############o         o#################o        &##############",
"############o          $################o        &##############",
"############o          o################o        &##############",
"############o           $###############o        &##############",
"############o           o###############o        &##############",
"############o            $##############o        &##############",
"############o            o##############o        &##############",
"############o             $#############o        &##############",
"############o             o#############o        &##############",
"############o              $############o        &##############",
"############o              o############o        &##############",
"############o               $###########o        &##############",
"############o               o###########o        &##############",
"############o                $##########o        &##############",
"############o                o##########o        &##############",
"############o        X        $#########o        &##############",
"############o        %        O#########o        &##############",
"############o        $*       .@########o        &##############",
"############o        $&        O########o        &##############",
"############o        $#*       .@#######o        &##############",
"############o        $#&        O#######o        &##############",
"############o        $##o       .@######o        &##############",
"############o        $##$        O######o        &##############",
"############o        $###o       .@#####o        &##############",
"############o        $###$        O#####o        &##############",
"############o        $####o       .@####o        &##############",
"############o        $####$        O####o        &##############",
"############o        $#####o       .@###o        &##############",
"############o        $#####$        O###o        &##############",
"############o        $######o       .@##o        &##############",
"############o        $######$        O##o        &##############",
"############o        $#######o       .@#o        &##############",
"############o        $#######$        O#o        &##############",
"############o        $########o       .@o        &##############",
"############o        $########$        Oo        &##############",
"############o        $#########o       .=        &##############",
"############o        $#########$                 &##############",
"############o        $##########o                &##############",
"############o        $##########$                &##############",
"############o        $###########o               &##############",
"############o        $###########$               &##############",
"############o        $############o              &##############",
"############o        $############$              &##############",
"############o        $#############+             &##############",
"############o        $#############@.            &##############",
"############o        $##############O            &##############",
"############o        $##############@.           &##############",
"############o        $###############O           &##############",
"############o        $###############@.          &##############",
"############o        $################O          &##############",
"############o        $################@.         &##############",
"############o        $#################O         &##############",
"################################################################",
"################################################################",
"################################################################",
"################################################################",
"################################################################",
"################################################################"
};
