/* XPM */
static char *yellowbrick[] = {
/* columns rows colors chars-per-pixel */
"64 64 16 1 ",
"  c #5A5959",
". c #696855",
"X c #777750",
"o c #A8A83E",
"O c #BEBD33",
"+ c #B3B338",
"@ c #F6F607",
"# c yellow",
"$ c #EDED10",
"% c #E4E419",
"& c #C8C72D",
"* c #D1D127",
"= c #DBDB20",
"- c #85844C",
"; c #919047",
": c #9D9C43",
/* pixels */
"################################################################",
"################################################################",
"################################################################",
"################################################################",
"################################################################",
"################################################################",
"##.         %############*         -#############@         O####",
"##:         O############O          @############*         %####",
"##O         +############:          %############O        .#####",
"##%         -############X          O############:        -#####",
"###.         ###########@           +############X        +#####",
"###:         %##########%           -###########@         *#####",
"###O         O##########&           .###########*         @#####",
"###%         +##########+            %##########O        -######",
"####.        -##########:            *##########:        +######",
"####:         ##########X            O##########.        *######",
"####O         %########@             :#########@         @######",
"####%         O########%      :      X#########*        -#######",
"#####.        +########&      O       @########O        +#######",
"#####:        -########+      *-      =########:        *#######",
"#####O         ########:      $:      O########.        @#######",
"#####%         %#######X      #+      +#######@        -########",
"######.        &######@      -#&      -#######*        +########",
"######:        +######%      :#%      .#######O        *########",
"######O        -######&      O#@       $######:        @########",
"######%        .######+      *##X      *######.       -#########",
"#######.        %#####:      %##:      O#####@        +#########",
"#######:        *#####X      ###+      :#####*        *#########",
"#######O        +####@      -###&      -#####O        @#########",
"#######%        ;####%      :###%       @####:       -##########",
"########.       .####&      O###@       %####X       +##########",
"########:        $###+      *####X      &###@        *##########",
"########O        *###:      %####:      +###=        @##########",
"########%        O###X     .#####+      ;###O       X###########",
"#########.       :##@      -#####&      .###o       :###########",
"#########:       -##%      o#####%       @##-       O###########",
"#########O        @#&      O#####@       =##        %###########",
"#########%        %#+      *######X      O#%       .############",
"##########.       &#:      $######:      +#&       :############",
"##########:       +#X     .#######O      ;#+       O############",
"##########O       :#      ;#######*      .#;       %############",
"##########*       X%      +#######%       @.      .#############",
"##########@        &      O########       *       :#############",
"###########-       :      =########-      :       O#############",
"###########+              @########o              %#############",
"###########*             X#########O             .##############",
"###########@             :#########*             :##############",
"############-            +#########@             O##############",
"############+            *##########.            %##############",
"############*            %##########;           .###############",
"############@            ###########+           :###############",
"#############-          -###########&           O###############",
"#############+          o###########%           %###############",
"#############*          O###########@          .################",
"#############@          *############-         :################",
"##############-         @############:         O################",
"##############+        .#############O         %################",
"##############*        ;#############*        .#################",
"################################################################",
"################################################################",
"################################################################",
"################################################################",
"################################################################",
"################################################################"
};
